control3min_grf.mot
version=1
nRows=20
nColumns 19
inDegrees=yes
endheader
time	1_ground_force_vx	1_ground_force_vy	1_ground_force_vz	1_ground_force_px	1_ground_force_py	1_ground_force_pz	1_ground_torque_x	1_ground_torque_y	1_ground_torque_z	2_ground_force_vx	2_ground_force_vy	2_ground_force_vz	2_ground_force_px	2_ground_force_py	2_ground_force_pz	2_ground_torque_x	2_ground_torque_y	2_ground_torque_z
            2.502500	          -72.574769	         1140.788039	          -97.877789	           -0.134956	            0.006297	           -0.418491	           -0.302299	            4.751774	           -0.407695	          -32.649428	         1165.390153	          102.345548	           -0.157360	            0.005844	           -0.677696	            0.039760	           -1.419195	           -0.124635
            2.503000	          -71.608633	         1133.213711	          -97.087243	           -0.134837	            0.006298	           -0.418547	           -0.292109	            4.622659	           -0.396043	          -32.483372	         1158.212216	          101.381301	           -0.157137	            0.005845	           -0.677738	            0.034922	           -1.245162	           -0.108992
            2.503500	          -70.597442	         1126.181094	          -96.569621	           -0.134615	            0.006297	           -0.418433	           -0.277679	            4.429579	           -0.379835	          -32.133755	         1152.138505	          100.749420	           -0.157089	            0.005845	           -0.677618	            0.032992	           -1.182918	           -0.103441
            2.504000	          -70.090099	         1119.328011	          -95.866550	           -0.134658	            0.006297	           -0.418456	           -0.268705	            4.291175	           -0.367524	          -31.600209	         1146.987530	           99.792241	           -0.157073	            0.005846	           -0.677831	            0.035306	           -1.281497	           -0.111495
            2.504500	          -69.261310	         1111.392623	          -95.031343	           -0.134531	            0.006298	           -0.418641	           -0.267498	            4.292366	           -0.367025	          -31.247373	         1139.994258	           98.922428	           -0.157002	            0.005846	           -0.677796	            0.037795	           -1.378879	           -0.119651
            2.505000	          -68.249406	         1105.440210	          -94.142235	           -0.134509	            0.006297	           -0.418285	           -0.274159	            4.440566	           -0.378170	          -30.476275	         1133.923654	           97.914929	           -0.157010	            0.005846	           -0.677821	            0.038676	           -1.439004	           -0.124259
            2.505500	          -67.421138	         1097.866201	          -93.488906	           -0.134393	            0.006297	           -0.418424	           -0.273645	            4.455961	           -0.379448	          -30.218511	         1127.298293	           96.952612	           -0.156912	            0.005846	           -0.677757	            0.035328	           -1.317913	           -0.113346
            2.506000	          -66.409603	         1089.571680	          -92.930842	           -0.134148	            0.006298	           -0.418564	           -0.261224	            4.285859	           -0.365546	          -29.911383	         1119.937955	           95.659159	           -0.156869	            0.005846	           -0.677591	            0.029866	           -1.118233	           -0.095514
            2.506500	          -65.626669	         1082.357271	          -92.046576	           -0.134161	            0.006297	           -0.418428	           -0.252419	            4.163052	           -0.354037	          -29.750618	         1114.232976	           94.747089	           -0.156726	            0.005846	           -0.677636	            0.027633	           -1.034913	           -0.088002
            2.507000	          -64.523707	         1075.504894	          -91.482556	           -0.134122	            0.006297	           -0.418389	           -0.244587	            4.076859	           -0.346778	          -29.398533	         1107.424454	           93.690220	           -0.156652	            0.005846	           -0.677642	            0.027970	           -1.053594	           -0.089136
            2.507500	          -63.878541	         1067.029294	          -90.786784	           -0.133923	            0.006298	           -0.418588	           -0.232321	            3.880701	           -0.330184	          -29.043846	         1099.879626	           92.489946	           -0.156466	            0.005847	           -0.677508	            0.031737	           -1.201867	           -0.101066
            2.508000	          -63.050542	         1059.636096	          -90.224400	           -0.133814	            0.006298	           -0.418552	           -0.232627	            3.909555	           -0.332885	          -28.648005	         1093.990074	           91.952544	           -0.156400	            0.005847	           -0.677525	            0.032157	           -1.228007	           -0.103217
            2.508500	          -62.266430	         1052.779873	          -88.834170	           -0.133875	            0.006297	           -0.418386	           -0.239333	            4.046560	           -0.341451	          -28.433144	         1086.260402	           90.892450	           -0.156315	            0.005847	           -0.677365	            0.031197	           -1.191869	           -0.099729
            2.509000	          -61.391804	         1044.844738	          -87.999076	           -0.133626	            0.006297	           -0.418400	           -0.236224	            4.020372	           -0.338604	          -28.036221	         1080.004455	           89.790612	           -0.156353	            0.005847	           -0.677382	            0.028552	           -1.099864	           -0.091442
            2.509500	          -60.609250	         1036.549780	          -87.348723	           -0.133446	            0.006298	           -0.418507	           -0.224103	            3.832655	           -0.322973	          -28.012144	         1073.195250	           88.593090	           -0.156237	            0.005847	           -0.677392	            0.023629	           -0.905272	           -0.074731
            2.510000	          -59.368629	         1028.976244	          -86.788137	           -0.133297	            0.006298	           -0.418630	           -0.209951	            3.638875	           -0.306918	          -27.614577	         1066.755391	           87.443659	           -0.156116	            0.005848	           -0.677592	            0.023111	           -0.892791	           -0.073184
            2.510500	          -58.585964	         1021.942403	          -85.994818	           -0.133409	            0.006297	           -0.418446	           -0.204358	            3.564720	           -0.299965	          -27.539479	         1058.839883	           86.664536	           -0.156101	            0.005847	           -0.677313	            0.022235	           -0.854908	           -0.069973
            2.511000	          -57.573675	         1014.547668	          -85.066027	           -0.133214	            0.006297	           -0.418408	           -0.202064	            3.560716	           -0.298553	          -27.517231	         1052.581578	           85.844426	           -0.155894	            0.005848	           -0.677416	            0.024297	           -0.929409	           -0.075799
            2.511500	          -56.744714	         1006.251613	          -84.186513	           -0.133134	            0.006298	           -0.418540	           -0.203889	            3.615547	           -0.302489	          -27.211973	         1045.772719	           84.834498	           -0.156024	            0.005848	           -0.677403	            0.025338	           -0.973768	           -0.078993
            2.512000	          -56.054050	         1000.299606	          -83.434181	           -0.133219	            0.006297	           -0.418333	           -0.204505	            3.649455	           -0.304398	          -26.669846	         1038.228234	           83.728000	           -0.155797	            0.005849	           -0.677352	            0.025057	           -0.975460	           -0.078666
